<svg xmlns="http://www.w3.org/2000/svg" xmlns:xlink="http://www.w3.org/1999/xlink" width="1080" zoomAndPan="magnify" viewBox="0 0 810 809.999993" height="1080" preserveAspectRatio="xMidYMid meet" version="1.0"><defs><clipPath id="c874136f16"><path d="M 117 152.695312 L 680 152.695312 L 680 655.945312 L 117 655.945312 Z M 117 152.695312 " clip-rule="nonzero"/></clipPath></defs><g clip-path="url(#c874136f16)"><path fill="#737373" d="M 644.527344 544.605469 C 633.777344 562.234375 619.734375 576.574219 604.339844 586.21875 C 628.339844 559.234375 650.148438 523.464844 663.386719 489.878906 C 661.742188 507.957031 655.339844 526.980469 644.527344 544.605469 Z M 542.117188 482.003906 C 539.769531 486.03125 534.539062 487.359375 530.542969 484.96875 L 499.050781 466.292969 C 493.292969 462.878906 485.832031 464.785156 482.421875 470.539062 L 450.402344 524.484375 C 447.015625 530.210938 448.90625 537.722656 454.632812 541.125 L 463.621094 546.449219 L 410.976562 635.113281 C 408.058594 640.066406 401.484375 641.792969 396.464844 638.820312 C 391.414062 635.839844 389.765625 629.316406 392.765625 624.289062 L 418.441406 580.988281 C 421.847656 575.234375 419.96875 567.761719 414.210938 564.34375 L 384.070312 546.449219 C 376.496094 541.929688 373.90625 532.050781 378.488281 524.421875 L 435.832031 427.738281 C 440.378906 420.074219 450.367188 417.621094 457.867188 422.125 L 539.183594 470.386719 C 543.191406 472.753906 544.519531 478.050781 542.117188 482.003906 Z M 452.75 640.292969 C 458.628906 640.292969 463.386719 635.535156 463.386719 629.6875 L 463.386719 578.054688 L 442.175781 613.761719 L 442.175781 629.6875 C 442.175781 635.53125 446.933594 640.292969 452.75 640.292969 Z M 675.195312 450.738281 C 672.398438 442.183594 660.199219 442.949219 658.394531 451.621094 C 653.867188 473.804688 643.292969 499.746094 628.429688 525.378906 L 558.746094 482.695312 C 560.765625 472.347656 556.433594 462.101562 547.289062 456.6875 L 466.03125 408.421875 C 450.8125 399.417969 431.128906 404.429688 422.140625 419.601562 L 364.796875 516.300781 C 355.6875 531.546875 360.769531 551.128906 375.957031 560.148438 L 402.808594 576.101562 L 379.074219 616.167969 C 368.535156 633.941406 381.464844 656.21875 401.8125 656.21875 C 410.859375 656.21875 419.730469 651.589844 424.667969 643.25 L 427.664062 638.207031 C 431.1875 648.671875 441.117188 656.207031 452.75 656.207031 C 467.382812 656.207031 479.308594 644.308594 479.308594 629.6875 L 479.308594 551.222656 C 482.601562 545.476562 480.71875 538.085938 474.960938 534.679688 L 466.03125 529.359375 L 494.175781 481.914062 L 522.375 498.671875 C 531.316406 503.980469 542.609375 502.984375 550.519531 496.355469 L 620.085938 538.953125 C 604.046875 563.863281 585.714844 585.082031 568.027344 599.179688 C 560.921875 604.816406 566.25 616.070312 574.84375 614.542969 C 643.148438 602.792969 695.730469 515.703125 675.195312 450.738281 Z M 496.289062 346.90625 C 509.507812 346.90625 520.320312 357.675781 520.320312 370.914062 C 520.320312 384.15625 509.507812 394.925781 496.289062 394.925781 C 483.070312 394.925781 472.257812 384.15625 472.257812 370.914062 C 472.257812 357.675781 483.070312 346.90625 496.289062 346.90625 Z M 496.289062 410.851562 C 474.253906 410.851562 456.335938 392.933594 456.335938 370.914062 C 456.335938 348.890625 474.253906 330.976562 496.289062 330.976562 C 518.320312 330.976562 536.242188 348.890625 536.242188 370.914062 C 536.242188 392.933594 518.320312 410.851562 496.289062 410.851562 Z M 267.910156 168.621094 C 285.769531 168.621094 300.34375 183.164062 300.34375 201.046875 C 300.34375 218.917969 285.773438 233.476562 267.910156 233.476562 C 249.988281 233.476562 235.476562 218.917969 235.476562 201.046875 C 235.476562 183.164062 249.988281 168.621094 267.910156 168.621094 Z M 267.910156 249.390625 C 294.527344 249.390625 316.265625 227.707031 316.265625 201.050781 C 316.265625 174.378906 294.527344 152.695312 267.910156 152.695312 C 241.234375 152.695312 219.554688 174.378906 219.554688 201.050781 C 219.554688 227.707031 241.234375 249.390625 267.910156 249.390625 Z M 342.234375 431.652344 C 346.171875 434.835938 351.988281 434.210938 355.21875 430.246094 L 397.816406 377.300781 C 405.042969 368.292969 403.75 354.914062 394.878906 347.480469 L 320.496094 285.117188 C 316.855469 282.046875 312.917969 280.617188 308.15625 280.617188 L 227.605469 280.617188 C 222.847656 280.617188 218.910156 282.046875 215.265625 285.117188 L 140.882812 347.480469 C 132.011719 354.914062 130.71875 368.292969 137.945312 377.300781 L 180.601562 430.246094 C 182.128906 432.148438 184.304688 433.351562 186.773438 433.621094 C 194.949219 434.507812 200.058594 425.054688 194.9375 418.679688 L 155.28125 369.378906 C 151.402344 364.53125 152.046875 357.328125 156.808594 353.328125 L 207.867188 310.203125 C 214.8125 304.3125 225.683594 309.15625 225.667969 318.519531 L 224.785156 628.035156 C 224.785156 634.777344 230.25 640.289062 237.007812 640.289062 C 243.824219 640.289062 249.289062 634.777344 249.289062 628.023438 L 249.289062 475.171875 C 249.289062 465.257812 257.394531 457.1875 267.265625 457.1875 C 277.574219 457.1875 285.539062 465.21875 285.539062 475.171875 L 285.539062 628.023438 C 285.539062 634.777344 291.0625 640.292969 297.820312 640.292969 C 304.578125 640.292969 310.097656 634.777344 310.097656 628.023438 L 310.097656 318.46875 C 310.097656 309.308594 320.882812 304.238281 327.902344 310.191406 L 378.960938 353.328125 C 383.71875 357.328125 384.425781 364.53125 380.488281 369.378906 L 340.828125 418.679688 C 337.652344 422.644531 338.238281 428.464844 342.234375 431.652344 Z M 328.425781 408.703125 C 327.488281 409.839844 326.722656 411.03125 326.019531 412.273438 L 326.019531 329.441406 L 365.445312 362.726562 Z M 209.449219 411.761719 C 208.859375 410.699219 208.15625 409.675781 207.332031 408.703125 L 170.375 362.730469 L 209.742188 329.480469 Z M 367.617188 440.234375 L 410.214844 387.277344 C 422.847656 371.570312 420.554688 348.234375 405.101562 335.277344 L 330.777344 272.914062 C 324.257812 267.453125 316.617188 264.691406 308.15625 264.691406 L 227.605469 264.691406 C 219.144531 264.691406 211.503906 267.453125 205.042969 272.914062 L 130.660156 335.277344 C 115.207031 348.234375 112.917969 371.570312 125.546875 387.277344 L 168.203125 440.234375 C 179.304688 454.070312 200.75 452.113281 209.390625 437.292969 L 208.863281 628.023438 C 208.863281 643.566406 221.496094 656.203125 237.007812 656.203125 C 252.578125 656.203125 265.207031 643.566406 265.207031 628.023438 L 265.207031 475.171875 C 265.207031 472.429688 269.613281 472.429688 269.613281 475.171875 L 269.613281 628.023438 C 269.613281 643.566406 282.246094 656.203125 297.816406 656.203125 C 313.386719 656.203125 326.019531 643.566406 326.019531 628.023438 L 326.019531 436.652344 C 327.546875 439.429688 329.601562 441.949219 332.246094 444.058594 C 343.058594 452.746094 358.921875 451.03125 367.617188 440.234375 Z M 367.617188 440.234375 " fill-opacity="1" fill-rule="evenodd"/></g></svg>