<svg xmlns="http://www.w3.org/2000/svg" xmlns:xlink="http://www.w3.org/1999/xlink" width="1080" zoomAndPan="magnify" viewBox="0 0 810 809.999993" height="1080" preserveAspectRatio="xMidYMid meet" version="1.0"><defs><clipPath id="972267f145"><path d="M 235 96 L 639.601562 96 L 639.601562 729 L 235 729 Z M 235 96 " clip-rule="nonzero"/></clipPath><clipPath id="5295cd2d01"><path d="M 170.101562 82 L 575 82 L 575 715 L 170.101562 715 Z M 170.101562 82 " clip-rule="nonzero"/></clipPath></defs><g clip-path="url(#972267f145)"><path fill="#ffb92e" d="M 243.96875 499.191406 C 251.972656 591.292969 261.097656 620.855469 268.988281 637.613281 C 269.222656 638.039062 269.414062 638.464844 269.609375 638.851562 C 274.230469 648.105469 280.390625 656.179688 288.09375 663.078125 C 293.199219 685.519531 304.335938 702.238281 321.390625 713.074219 C 339.453125 725.109375 362.152344 728.554688 417.03125 728.554688 C 430.761719 728.554688 446.734375 728.28125 464.601562 727.78125 C 563.335938 724.914062 591.414062 716.90625 611.253906 702.007812 C 637.589844 682.15625 638.324219 651.234375 639.136719 628.675781 C 639.710938 607.257812 637.75 586.078125 633.257812 565.132812 C 621.65625 510.21875 588.707031 494.625 570.066406 490.210938 C 568.980469 489.941406 567.859375 489.710938 566.738281 489.515625 C 561.363281 488.59375 555.949219 488.140625 550.496094 488.160156 C 546.898438 488.160156 542.761719 488.160156 537.617188 488.78125 C 542.28125 486.660156 546.675781 484.078125 550.804688 481.042969 C 577.875 461.691406 578.457031 430.734375 578.804688 413.707031 C 579.035156 397.132812 577.371094 380.75 573.816406 364.5625 C 567.898438 337.203125 555.601562 320.753906 542.875 310.886719 C 562.988281 308.253906 577.683594 304.152344 589.285156 297.921875 L 591.0625 296.957031 C 605.296875 288.828125 629.738281 268.433594 633.101562 223.429688 C 633.867188 212.9375 633.566406 202.480469 632.191406 192.054688 C 630.816406 181.625 628.398438 171.445312 624.941406 161.511719 C 611.367188 121.265625 586.308594 106.523438 567.820312 101.414062 L 564.882812 100.640625 C 551.171875 97.761719 537.3125 96.472656 523.308594 96.769531 C 494.03125 96.460938 454.121094 100.601562 401.332031 109.152344 C 303.484375 125.019531 251.742188 142.320312 240.523438 192.742188 C 240.0625 194.722656 239.714844 196.71875 239.480469 198.738281 C 236.230469 225.25 234.917969 265.144531 235.1875 321.140625 C 235.421875 375.472656 238.320312 435.378906 243.96875 499.191406 Z M 243.96875 499.191406 " fill-opacity="1" fill-rule="nonzero"/></g><g clip-path="url(#5295cd2d01)"><path fill="#ffffff" d="M 352.253906 714.273438 C 297.375 714.273438 274.675781 710.714844 256.613281 698.792969 C 239.558594 687.996094 228.421875 671.242188 223.355469 648.835938 C 215.644531 641.9375 209.46875 633.859375 204.828125 624.609375 L 204.25 623.371094 C 196.320312 606.578125 187.195312 576.933594 179.226562 484.949219 C 173.695312 421.019531 170.757812 361.117188 170.488281 306.746094 C 170.253906 250.789062 171.6875 210.738281 174.816406 184.421875 C 175.089844 182.410156 175.398438 180.550781 175.863281 178.386719 C 187.078125 128 238.824219 110.703125 336.785156 94.796875 C 389.457031 86.246094 429.371094 82.066406 458.683594 82.066406 C 472.675781 81.765625 486.523438 83.054688 500.21875 85.933594 C 501.226562 86.167969 502.191406 86.398438 503.160156 86.710938 C 521.644531 92.011719 546.550781 106.714844 560.433594 146.769531 C 563.894531 156.699219 566.3125 166.878906 567.6875 177.308594 C 569.0625 187.738281 569.363281 198.195312 568.59375 208.683594 C 565.230469 253.691406 540.828125 274.046875 526.554688 282.210938 L 524.777344 283.179688 C 513.175781 289.371094 498.480469 293.511719 478.367188 296.105469 C 491.015625 305.972656 503.273438 322.417969 509.308594 349.816406 C 512.808594 366.15625 514.382812 382.679688 514.027344 399.390625 C 513.679688 416.378906 513.019531 447.492188 486.027344 466.722656 C 481.914062 469.789062 477.519531 472.367188 472.839844 474.460938 C 477.980469 474 482.121094 473.882812 485.71875 473.882812 C 491.167969 473.847656 496.582031 474.285156 501.960938 475.199219 L 505.324219 475.894531 C 523.925781 480.304688 556.875 495.902344 568.480469 550.851562 C 572.972656 571.796875 574.933594 592.980469 574.355469 614.394531 C 573.699219 636.957031 572.808594 667.835938 546.472656 687.6875 C 526.632812 702.585938 498.554688 710.636719 399.824219 713.460938 C 381.957031 714.042969 365.984375 714.273438 352.253906 714.273438 Z M 352.253906 714.273438 " fill-opacity="1" fill-rule="nonzero"/></g><path fill="#6cd2ff" d="M 491.207031 535.644531 C 499.214844 537.539062 504.976562 546.867188 508.496094 563.546875 C 511.980469 579.730469 513.511719 596.101562 513.097656 612.652344 C 512.59375 628.636719 511.433594 637.34375 509.539062 638.773438 C 500.128906 645.816406 462.964844 650.292969 398.042969 652.203125 C 333.121094 654.113281 297.128906 652.460938 290.066406 647.25 C 283.441406 643.507812 280.617188 631.5 281.597656 611.222656 C 270.304688 608.394531 262.996094 603.714844 259.707031 597.097656 C 252.179688 581.128906 245.734375 541.9375 240.371094 479.53125 C 235.007812 417.125 232.160156 359.453125 231.824219 306.515625 C 231.589844 253.574219 232.878906 215.328125 235.691406 191.773438 C 238.550781 179.054688 275.5 166.929688 346.53125 155.398438 C 417.5625 143.867188 464.136719 140.679688 486.257812 145.839844 C 492.832031 147.75 498.246094 154.816406 502.5 167.046875 C 504.597656 173.046875 506.0625 179.199219 506.894531 185.503906 C 507.730469 191.804688 507.914062 198.125 507.453125 204.46875 C 506.496094 217.1875 502.734375 225.429688 496.160156 229.195312 C 488.167969 233.425781 471.40625 236.25 445.882812 237.671875 C 420.359375 239.089844 397.0625 239.320312 376 238.367188 L 343.707031 236.859375 C 347.933594 273.570312 352.164062 314.292969 356.390625 359.027344 C 401.097656 346.28125 427.925781 340.863281 436.871094 342.773438 C 442.519531 344.21875 446.628906 350.925781 449.207031 362.898438 C 451.792969 374.558594 452.992188 386.363281 452.804688 398.304688 C 452.574219 409.914062 451.761719 416.066406 450.332031 416.996094 C 442.828125 422.644531 413.898438 425.949219 363.546875 426.902344 C 368.703125 486.679688 371.988281 530.9375 373.40625 559.675781 C 438.765625 541.308594 478.035156 533.296875 491.207031 535.644531 Z M 440.390625 378.878906 C 440.855469 377.949219 441.320312 376.867188 441.785156 375.707031 C 442.472656 373.636719 442.949219 371.523438 443.214844 369.359375 C 443.695312 366.507812 443.578125 363.683594 442.867188 360.882812 C 442.339844 359.371094 441.5625 358.007812 440.527344 356.785156 C 439.496094 355.5625 438.277344 354.570312 436.871094 353.800781 C 432.25 351.296875 427.3125 350.007812 422.058594 349.933594 C 422.769531 349.972656 423.464844 350.089844 424.148438 350.28125 C 425.667969 350.789062 427.085938 351.496094 428.402344 352.410156 C 430.371094 353.632812 432.140625 355.105469 433.699219 356.820312 C 435.710938 359.382812 437.230469 362.207031 438.265625 365.296875 C 439.808594 369.691406 440.515625 374.21875 440.390625 378.878906 Z M 489.777344 198.777344 C 490.269531 197.3125 490.632812 195.816406 490.859375 194.289062 C 491.09375 192.625 491.441406 189.453125 491.90625 184.730469 C 492.371094 180.5 492.371094 176.269531 491.90625 172.039062 C 491.609375 170.015625 491.039062 168.078125 490.199219 166.214844 C 489.355469 164.355469 488.277344 162.644531 486.953125 161.085938 C 485.441406 159.261719 483.652344 157.773438 481.585938 156.621094 C 479.515625 155.464844 477.308594 154.722656 474.964844 154.390625 C 476.535156 154.941406 477.953125 155.753906 479.21875 156.832031 C 482.074219 160.832031 484.1875 165.191406 485.5625 169.910156 C 488.671875 179.285156 490.074219 188.90625 489.777344 198.777344 Z M 493.335938 587.925781 C 493.945312 586.554688 494.410156 585.136719 494.726562 583.667969 C 495.191406 581.8125 495.8125 578.523438 496.507812 573.800781 C 497.226562 569.535156 497.109375 565.289062 496.160156 561.070312 C 494.929688 556.949219 492.800781 553.363281 489.777344 550.3125 C 487.871094 548.429688 485.707031 546.914062 483.285156 545.765625 C 480.867188 544.617188 478.324219 543.902344 475.660156 543.617188 C 475.660156 544.082031 475.894531 544.3125 476.398438 544.3125 C 477.34375 544.582031 478.167969 545.058594 478.871094 545.746094 C 480.03125 546.671875 481.191406 547.757812 482.390625 548.917969 C 483.894531 550.527344 485.183594 552.296875 486.257812 554.21875 C 487.726562 556.664062 488.898438 559.246094 489.777344 561.957031 C 490.933594 565.652344 491.761719 569.417969 492.253906 573.257812 C 492.992188 578.121094 493.351562 583.007812 493.335938 587.925781 Z M 493.335938 587.925781 " fill-opacity="1" fill-rule="nonzero"/></svg>